<?xml version="1.0" encoding="UTF-8" standalone="no"?>
<svg
   xmlns:dc="http://purl.org/dc/elements/1.1/"
   xmlns:cc="http://creativecommons.org/ns#"
   xmlns:rdf="http://www.w3.org/1999/02/22-rdf-syntax-ns#"
   xmlns:svg="http://www.w3.org/2000/svg"
   xmlns="http://www.w3.org/2000/svg"
   id="svg3519"
   version="1.1"
   viewBox="0 0 101 113"
   height="113mm"
   width="101mm">
  <defs
     id="defs3513" />
  <metadata
     id="metadata3516">
    <rdf:RDF>
      <cc:Work
         rdf:about="">
        <dc:format>image/svg+xml</dc:format>
        <dc:type
           rdf:resource="http://purl.org/dc/dcmitype/StillImage" />
        <dc:title></dc:title>
      </cc:Work>
    </rdf:RDF>
  </metadata>
  <g
     transform="translate(0,-184)"
     id="layer1">
    <path
       id="path3511"
       d="m 0.22845,271.92717 c 0.018,-13.57349 0.034,-28.38156 0.034,-32.90683 v -8.22777 l 10.87142,-10.1097 c 21.2503,-19.76136 24.70348,-22.96176 31.47758,-29.17373 4.6318,-4.24744 7.816,-7.11478 7.90152,-7.11537 0.19309,-10e-4 10.52909,9.45479 22.98088,21.02447 13.67312,12.70452 26.655,24.78012 26.9466,25.06541 l 0.3647,0.3567 v 32.88294 32.88294 H 50.50027 0.19485 Z m 90.66872,1.91965 c 0,-8.63432 -0.0169,-13.00178 -0.05,-13.00178 -0.033,0 -0.05,-4.37401 -0.05,-13.02142 V 234.8022 l -9.84571,-9.1505 c -5.41509,-5.03277 -10.6495,-9.89583 -11.63198,-10.80679 -9.4938,-8.80262 -17.29081,-15.87956 -18.54621,-16.83346 l -0.264,-0.2006 -0.18859,0.14349 c -0.53282,0.4052 -3.64482,3.19491 -7.50692,6.72948 -4.79168,4.38528 -7.89358,7.25873 -25.1383,23.28644 l -7.35359,6.83473 v 26.0218 26.02182 h 40.28789 40.28792 z"
       style="fill:#000000;stroke-width:0.05029703" />
  </g>
</svg>
