<?xml version="1.0" encoding="UTF-8" standalone="no"?>
<!-- Created with Inkscape (http://www.inkscape.org/) -->

<svg
   xmlns:dc="http://purl.org/dc/elements/1.1/"
   xmlns:cc="http://creativecommons.org/ns#"
   xmlns:rdf="http://www.w3.org/1999/02/22-rdf-syntax-ns#"
   xmlns:svg="http://www.w3.org/2000/svg"
   xmlns="http://www.w3.org/2000/svg"
   xmlns:sodipodi="http://sodipodi.sourceforge.net/DTD/sodipodi-0.dtd"
   xmlns:inkscape="http://www.inkscape.org/namespaces/inkscape"
   width="90mm"
   height="111mm"
   viewBox="0 0 90 111"
   version="1.1"
   id="svg3519"
   sodipodi:docname="notifs.svg"
   inkscape:version="0.92.2 5c3e80d, 2017-08-06">
  <defs
     id="defs3513" />
  <sodipodi:namedview
     id="base"
     pagecolor="#ffffff"
     bordercolor="#666666"
     borderopacity="1.0"
     inkscape:pageopacity="0.0"
     inkscape:pageshadow="2"
     inkscape:zoom="0.2238442"
     inkscape:cx="-15.591686"
     inkscape:cy="608.42007"
     inkscape:document-units="mm"
     inkscape:current-layer="layer1"
     showgrid="false"
     inkscape:window-width="1680"
     inkscape:window-height="953"
     inkscape:window-x="0"
     inkscape:window-y="1"
     inkscape:window-maximized="1" />
  <metadata
     id="metadata3516">
    <rdf:RDF>
      <cc:Work
         rdf:about="">
        <dc:format>image/svg+xml</dc:format>
        <dc:type
           rdf:resource="http://purl.org/dc/dcmitype/StillImage" />
        <dc:title></dc:title>
      </cc:Work>
    </rdf:RDF>
  </metadata>
  <g
     inkscape:label="Layer 1"
     inkscape:groupmode="layer"
     id="layer1"
     transform="translate(0,-186)">
    <path
       style="fill:#000000;stroke:none;stroke-width:0.04864376;stroke-opacity:1"
       d="m 47.186213,296.66214 c -2.16182,-0.18506 -3.730763,-0.53893 -5.496743,-1.24019 -0.613177,-0.24318 -1.946248,-0.91261 -2.536929,-1.27342 -3.172922,-1.93807 -5.682923,-4.87154 -7.080691,-8.27544 -0.891875,-2.17187 -1.295831,-4.23299 -1.29766,-6.62091 -0.0012,-1.60888 0.146836,-2.86868 0.5027,-4.27763 0.08066,-0.31913 0.138564,-0.58884 0.128651,-0.59879 -0.01,-0.007 -6.975866,-1.39915 -15.479844,-3.08708 C 7.4217118,269.60067 0.45925275,268.21646 0.45355075,268.21261 4.5785388,247.94585 8.9527078,228.20849 12.429875,211.38031 c 1.347691,-3.36987 3.214727,-6.63478 5.444955,-9.52143 1.139072,-1.47442 1.95707,-2.39805 3.405645,-3.84551 1.186457,-1.1856 1.919541,-1.8522 3.003259,-2.73072 8.693988,-7.0478 19.83405,-10.13371 30.866923,-8.55039 7.171513,1.02921 14.012567,4.03563 19.600778,8.614 1.389438,1.13832 3.050301,2.71571 4.244763,4.03124 2.525822,2.7819 4.516969,5.6964 6.201837,9.07787 2.250303,4.51618 3.579837,9.21539 4.037642,14.27113 0.679837,4.71055 0.172295,7.44666 -0.825832,12.40431 -0.199715,0.98991 -2.453324,12.32679 -5.008103,25.19307 -2.554782,12.86628 -4.653685,23.40184 -4.664232,23.41239 -0.01034,0.007 -2.94777,-0.56206 -6.527165,-1.27246 -3.579395,-0.71046 -6.531583,-1.29164 -6.560426,-1.29164 -0.03031,0 -0.109003,0.34659 -0.185274,0.8148 -0.340846,2.09104 -0.97951,3.93914 -1.976731,5.72029 -2.759597,4.92905 -7.641156,8.19681 -13.237247,8.86106 -0.620572,0.0738 -2.589769,0.133 -3.064557,0.0924 z m 2.43219,-8.46342 c 3.237761,-0.46287 5.367679,-2.2945 6.716511,-5.31201 0.411147,-0.91988 0.699114,-2.04729 0.795891,-3.11618 0.03031,-0.33696 0.02532,-0.37472 -0.0567,-0.39865 -0.114103,-0.0321 -17.040704,-3.29952 -17.095819,-3.29952 -0.0435,0 -0.313818,0.83826 -0.39983,1.24008 -0.202639,0.94669 -0.254734,2.48116 -0.116206,3.42354 0.540297,3.67546 2.340312,6.00461 5.873917,7.12357 1.379036,0.43658 2.808614,0.5499 4.28222,0.3391 z M 76.5246,247.77676 c 2.624841,-13.21661 2.587298,-13.02624 2.892091,-14.6661 0.991744,-5.33594 1.096277,-5.95955 1.096277,-6.53933 0,-0.26458 0.01819,-0.39248 0.05627,-0.39248 0.0695,0 0.0271,-1.27156 -0.08098,-2.41708 -0.69164,-7.34429 -3.673854,-13.84143 -8.793898,-19.10805 -6.324786,-6.50581 -14.597314,-10.00887 -23.683323,-9.68568 -0.635409,0.025 -1.264738,0.0528 -1.398509,0.067 -0.133785,0.0107 -0.560618,0.0599 -0.948549,0.10127 -7.893551,0.8456 -13.792135,3.94652 -19.0621,9.95142 -1.276116,1.45413 -2.400073,2.99837 -3.442853,4.73041 -0.467029,0.77565 -1.536834,2.84607 -1.75671,3.39972 -0.61732,1.55451 -1.041411,2.73115 -1.285123,4.42864 -0.07067,0.49207 -0.281334,1.64133 -0.468142,2.55376 -0.426151,2.08138 -0.5115,3.50224 -2.71648,14.66411 -0.980398,4.9629 -1.810894,9.1219 -1.84552,9.24228 -0.09652,0.33553 -3.174345,16.80678 -3.155479,16.86333 0.01854,0.0556 2.265033,0.77173 17.076175,3.71126 5.604977,1.11243 14.875261,2.95226 20.60063,4.08847 5.72537,1.13625 13.091256,2.59965 16.368625,3.252 6.509861,1.29588 5.710893,1.10576 5.710893,1.10576 z"
       id="path4354-2"
       inkscape:connector-curvature="0"
       sodipodi:nodetypes="cccscccscccccccccccsccscccccccccsccccccsssccccccccccsccccccc" />
  </g>
</svg>
