<?xml version="1.0" encoding="UTF-8" standalone="no"?>
<!-- Created with Inkscape (http://www.inkscape.org/) -->

<svg
   xmlns:dc="http://purl.org/dc/elements/1.1/"
   xmlns:cc="http://creativecommons.org/ns#"
   xmlns:rdf="http://www.w3.org/1999/02/22-rdf-syntax-ns#"
   xmlns:svg="http://www.w3.org/2000/svg"
   xmlns="http://www.w3.org/2000/svg"
   xmlns:sodipodi="http://sodipodi.sourceforge.net/DTD/sodipodi-0.dtd"
   xmlns:inkscape="http://www.inkscape.org/namespaces/inkscape"
   width="102mm"
   height="97mm"
   viewBox="0 0 102 97"
   version="1.1"
   id="svg3519"
   sodipodi:docname="profile.svg"
   inkscape:version="0.92.2 5c3e80d, 2017-08-06">
  <defs
     id="defs3513" />
  <sodipodi:namedview
     id="base"
     pagecolor="#ffffff"
     bordercolor="#666666"
     borderopacity="1.0"
     inkscape:pageopacity="0.0"
     inkscape:pageshadow="2"
     inkscape:zoom="0.15828175"
     inkscape:cx="-15.591686"
     inkscape:cy="30.83387"
     inkscape:document-units="mm"
     inkscape:current-layer="layer1"
     showgrid="false"
     inkscape:window-width="1680"
     inkscape:window-height="953"
     inkscape:window-x="0"
     inkscape:window-y="1"
     inkscape:window-maximized="1" />
  <metadata
     id="metadata3516">
    <rdf:RDF>
      <cc:Work
         rdf:about="">
        <dc:format>image/svg+xml</dc:format>
        <dc:type
           rdf:resource="http://purl.org/dc/dcmitype/StillImage" />
        <dc:title></dc:title>
      </cc:Work>
    </rdf:RDF>
  </metadata>
  <g
     inkscape:label="Layer 1"
     inkscape:groupmode="layer"
     id="layer1"
     transform="translate(0,-200)">
    <g
       id="g4358"
       transform="matrix(3.6349292,0,0,3.6349292,-156.19096,-760.43939)">
      <path
         sodipodi:nodetypes="cccccccccccccccccccccccccccccccccscccccc"
         inkscape:connector-curvature="0"
         id="path3507"
         d="m 56.694322,279.13471 c -1.321198,-0.0427 -2.7126,-0.50288 -3.872957,-1.28083 -0.622679,-0.41743 -1.272675,-1.03167 -1.743446,-1.6475 -0.586428,-0.76713 -1.073381,-1.77147 -1.29681,-2.67477 -0.145409,-0.58786 -0.197478,-1.08178 -0.197705,-1.87485 0,-1.05977 0.10291,-1.70489 0.399794,-2.49978 0.393157,-1.05258 0.935905,-1.92297 1.666447,-2.6724 1.257446,-1.28995 2.907051,-2.0896 4.619451,-2.23933 0.288772,-0.0252 1.2082,-0.021 1.514039,0.006 1.401221,0.12802 2.801894,0.72845 3.994503,1.71232 0.216431,0.17856 0.723474,0.68405 0.901653,0.89891 0.609793,0.7353 1.074267,1.55246 1.35154,2.37782 0.249384,0.74228 0.337499,1.23569 0.376475,2.108 0.02878,0.64374 -0.0096,1.24908 -0.111067,1.75424 -0.457906,2.27907 -1.963649,4.24838 -4.026208,5.26572 -0.758519,0.37412 -1.68006,0.63067 -2.615759,0.7282 -0.189385,0.0199 -0.710905,0.0477 -0.805337,0.0432 -0.02834,-9.3e-4 -0.09793,-0.004 -0.154613,-0.006 z m 0.514338,-2.18199 c 1.627765,-0.0864 3.08319,-0.85898 4.029911,-2.13902 0.355204,-0.48021 0.635771,-1.03578 0.832973,-1.64933 0.08135,-0.25307 0.126274,-0.45597 0.142705,-0.64427 0.03671,-0.42079 0.02531,-1.6495 -0.0175,-1.88773 -0.03534,-0.1966 -0.165795,-0.60876 -0.284091,-0.89761 -0.593882,-1.44997 -1.744695,-2.54287 -3.227529,-3.06507 -0.396859,-0.13974 -0.681767,-0.2037 -1.037289,-0.23287 -0.252818,-0.0208 -1.033655,-0.021 -1.249903,-4.7e-4 -0.646655,0.0613 -1.074153,0.19003 -1.745968,0.52526 -0.585725,0.29229 -0.9862,0.57625 -1.404858,0.99618 -0.422588,0.4239 -0.7357,0.87827 -1.044015,1.51499 -0.297477,0.61435 -0.404204,0.97562 -0.44918,1.5205 -0.03632,0.44001 -0.0275,1.19047 0.01818,1.54871 0.05525,0.43305 0.159227,0.76602 0.40118,1.28472 0.226885,0.48639 0.487179,0.90115 0.801404,1.27705 0.134295,0.16062 0.471044,0.49367 0.633543,0.62658 0.907836,0.74259 2.057012,1.1855 3.182711,1.22669 0.05316,0.002 0.116932,0.004 0.141727,0.006 0.02482,9.2e-4 0.148998,-0.003 0.275975,-0.009 z"
         style="fill:#000000;stroke-width:0.01288548" />
      <path
         sodipodi:nodetypes="zcczzccczz"
         inkscape:connector-curvature="0"
         id="path4290"
         d="m 48.468215,281.96978 c -4.052354,2.19464 -5.492733,8.93738 -5.492733,8.93738 h 2.585477 c 0,0 0.869898,-4.99117 4.16626,-6.77904 3.296362,-1.78788 11.209955,-1.78734 14.505344,0 3.295389,1.78734 4.162891,6.77355 4.162891,6.77355 h 2.478687 0.150377 c 0,0 -1.431957,-6.71422 -5.476665,-8.91124 -4.044708,-2.19701 -13.027283,-2.21529 -17.079638,-0.0206 z"
         style="fill:#000000;fill-opacity:1;fill-rule:evenodd;stroke:none;stroke-width:0.24607465px;stroke-linecap:butt;stroke-linejoin:miter;stroke-opacity:1" />
    </g>
  </g>
</svg>
