<?xml version="1.0" encoding="UTF-8" standalone="no"?>
<!-- Created with Inkscape (http://www.inkscape.org/) -->

<svg
   xmlns:dc="http://purl.org/dc/elements/1.1/"
   xmlns:cc="http://creativecommons.org/ns#"
   xmlns:rdf="http://www.w3.org/1999/02/22-rdf-syntax-ns#"
   xmlns:svg="http://www.w3.org/2000/svg"
   xmlns="http://www.w3.org/2000/svg"
   xmlns:xlink="http://www.w3.org/1999/xlink"
   xmlns:sodipodi="http://sodipodi.sourceforge.net/DTD/sodipodi-0.dtd"
   xmlns:inkscape="http://www.inkscape.org/namespaces/inkscape"
   width="664mm"
   height="124mm"
   viewBox="0 0 664 124"
   version="1.1"
   id="svg2427"
   inkscape:version="0.92.2 5c3e80d, 2017-08-06"
   sodipodi:docname="logo.svg">
  <defs
     id="defs2421">
    <clipPath
       clipPathUnits="userSpaceOnUse"
       id="clipPath4262-4">
      <path
         style="fill:none;fill-rule:evenodd;stroke:#000000;stroke-width:0.26458332px;stroke-linecap:butt;stroke-linejoin:miter;stroke-opacity:1"
         d="m 543.90774,924.81842 49.4306,-119.47181 -95.14795,-15.50162 17.10526,-49.71211 89.26803,-28.86512 75.90454,39.02136 5.34538,111.18413 -56.86121,77.70826 z"
         id="path4264-2"
         inkscape:connector-curvature="0" />
    </clipPath>
    <clipPath
       clipPathUnits="userSpaceOnUse"
       id="clipPath4278-4">
      <path
         style="fill:none;fill-rule:evenodd;stroke:#000000;stroke-width:0.26458332px;stroke-linecap:butt;stroke-linejoin:miter;stroke-opacity:1"
         d="m 543.90774,924.81842 49.4306,-119.47181 29.93419,-86.06076 79.11179,45.97035 -24.58879,103.70058 -51.86695,69.46879 z"
         id="path4280-9"
         inkscape:connector-curvature="0" />
    </clipPath>
    <clipPath
       clipPathUnits="userSpaceOnUse"
       id="clipPath4270-0">
      <path
         style="fill:none;fill-rule:evenodd;stroke:#000000;stroke-width:0.26458332px;stroke-linecap:butt;stroke-linejoin:miter;stroke-opacity:1"
         d="m 543.90774,924.81842 49.4306,-119.47181 -42.22859,-85.52622 53.45393,-8.55263 86.59532,67.35194 -31.00326,94.61341 -31.20335,65.9484 z"
         id="path4272-3"
         inkscape:connector-curvature="0" />
    </clipPath>
    <clipPath
       clipPathUnits="userSpaceOnUse"
       id="clipPath4286-3">
      <path
         style="fill:none;fill-rule:evenodd;stroke:#000000;stroke-width:0.26458332px;stroke-linecap:butt;stroke-linejoin:miter;stroke-opacity:1"
         d="m 543.90774,924.81842 49.4306,-119.47181 81.78448,-40.62495 9.6217,33.67596 -6.94899,36.34867 -48.84314,104.43522 z"
         id="path4288-4"
         inkscape:connector-curvature="0" />
    </clipPath>
    <clipPath
       clipPathUnits="userSpaceOnUse"
       id="clipPath4290-2">
      <path
         style="fill:none;fill-rule:evenodd;stroke:#000000;stroke-width:0.26458332px;stroke-linecap:butt;stroke-linejoin:miter;stroke-opacity:1"
         d="m 543.90774,924.81842 49.4306,-119.47181 91.40618,-6.94899 -6.94899,36.34867 -51.86695,103.67928 z"
         id="path4292-8"
         inkscape:connector-curvature="0" />
    </clipPath>
    <clipPath
       clipPathUnits="userSpaceOnUse"
       id="clipPath4294-9">
      <path
         style="fill:none;fill-rule:evenodd;stroke:#000000;stroke-width:0.26458332px;stroke-linecap:butt;stroke-linejoin:miter;stroke-opacity:1"
         d="m 543.90774,924.81842 44.08522,-102.90106 89.80257,12.82893 -51.86695,103.67928 z"
         id="path4296-9"
         inkscape:connector-curvature="0" />
    </clipPath>
    <clipPath
       clipPathUnits="userSpaceOnUse"
       id="clipPath4186-7">
      <path
         style="fill:none;fill-rule:evenodd;stroke:#000000;stroke-width:0.26458332px;stroke-linecap:butt;stroke-linejoin:miter;stroke-opacity:1"
         d="m 543.90774,924.81842 18.14285,-44.2232 79.75299,18.89882 -15.875,38.93153 z"
         id="path4188-3"
         inkscape:connector-curvature="0" />
    </clipPath>
    <clipPath
       clipPathUnits="userSpaceOnUse"
       id="clipPath4302-4">
      <path
         style="fill:none;fill-rule:evenodd;stroke:#000000;stroke-width:0.26458332px;stroke-linecap:butt;stroke-linejoin:miter;stroke-opacity:1"
         d="m 543.90774,924.81842 31.25629,-77.2432 84.99171,25.65789 -34.22716,65.19246 z"
         id="path4304-0"
         inkscape:connector-curvature="0" />
    </clipPath>
    <clipPath
       clipPathUnits="userSpaceOnUse"
       id="clipPath1687">
      <rect
         style="opacity:1;fill:none;fill-opacity:1;stroke:#000000;stroke-width:1.8460356;stroke-linecap:round;stroke-linejoin:round;stroke-miterlimit:4;stroke-dasharray:none;stroke-opacity:1"
         id="rect1689"
         width="512"
         height="512"
         x="705.57141"
         y="600.40479"
         ry="123.22024" />
    </clipPath>
    <linearGradient
       inkscape:collect="always"
       xlink:href="#linearGradient1462"
       id="linearGradient1464"
       x1="62.846668"
       y1="-1793.2899"
       x2="168.899"
       y2="-1798.9596"
       gradientUnits="userSpaceOnUse" />
    <linearGradient
       inkscape:collect="always"
       id="linearGradient1462">
      <stop
         style="stop-color:#6431fc;stop-opacity:1"
         offset="0"
         id="stop1458" />
      <stop
         style="stop-color:#3a69fc;stop-opacity:1"
         offset="1"
         id="stop1460" />
    </linearGradient>
    <clipPath
       clipPathUnits="userSpaceOnUse"
       id="clipPath4262-4-4">
      <path
         style="fill:none;fill-rule:evenodd;stroke:#000000;stroke-width:0.26458332px;stroke-linecap:butt;stroke-linejoin:miter;stroke-opacity:1"
         d="m 543.90774,924.81842 49.4306,-119.47181 -95.14795,-15.50162 17.10526,-49.71211 89.26803,-28.86512 75.90454,39.02136 5.34538,111.18413 -56.86121,77.70826 z"
         id="path4264-2-9"
         inkscape:connector-curvature="0" />
    </clipPath>
    <clipPath
       clipPathUnits="userSpaceOnUse"
       id="clipPath4278-4-58">
      <path
         style="fill:none;fill-rule:evenodd;stroke:#000000;stroke-width:0.26458332px;stroke-linecap:butt;stroke-linejoin:miter;stroke-opacity:1"
         d="m 543.90774,924.81842 49.4306,-119.47181 29.93419,-86.06076 79.11179,45.97035 -24.58879,103.70058 -51.86695,69.46879 z"
         id="path4280-9-2"
         inkscape:connector-curvature="0" />
    </clipPath>
    <clipPath
       clipPathUnits="userSpaceOnUse"
       id="clipPath4270-0-0">
      <path
         style="fill:none;fill-rule:evenodd;stroke:#000000;stroke-width:0.26458332px;stroke-linecap:butt;stroke-linejoin:miter;stroke-opacity:1"
         d="m 543.90774,924.81842 49.4306,-119.47181 -42.22859,-85.52622 53.45393,-8.55263 86.59532,67.35194 -31.00326,94.61341 -31.20335,65.9484 z"
         id="path4272-3-7"
         inkscape:connector-curvature="0" />
    </clipPath>
    <clipPath
       clipPathUnits="userSpaceOnUse"
       id="clipPath4286-3-8">
      <path
         style="fill:none;fill-rule:evenodd;stroke:#000000;stroke-width:0.26458332px;stroke-linecap:butt;stroke-linejoin:miter;stroke-opacity:1"
         d="m 543.90774,924.81842 49.4306,-119.47181 81.78448,-40.62495 9.6217,33.67596 -6.94899,36.34867 -48.84314,104.43522 z"
         id="path4288-4-3"
         inkscape:connector-curvature="0" />
    </clipPath>
    <clipPath
       clipPathUnits="userSpaceOnUse"
       id="clipPath4290-2-25">
      <path
         style="fill:none;fill-rule:evenodd;stroke:#000000;stroke-width:0.26458332px;stroke-linecap:butt;stroke-linejoin:miter;stroke-opacity:1"
         d="m 543.90774,924.81842 49.4306,-119.47181 91.40618,-6.94899 -6.94899,36.34867 -51.86695,103.67928 z"
         id="path4292-8-2"
         inkscape:connector-curvature="0" />
    </clipPath>
    <clipPath
       clipPathUnits="userSpaceOnUse"
       id="clipPath4294-9-5">
      <path
         style="fill:none;fill-rule:evenodd;stroke:#000000;stroke-width:0.26458332px;stroke-linecap:butt;stroke-linejoin:miter;stroke-opacity:1"
         d="m 543.90774,924.81842 44.08522,-102.90106 89.80257,12.82893 -51.86695,103.67928 z"
         id="path4296-9-21"
         inkscape:connector-curvature="0" />
    </clipPath>
    <clipPath
       clipPathUnits="userSpaceOnUse"
       id="clipPath4186-7-8">
      <path
         style="fill:none;fill-rule:evenodd;stroke:#000000;stroke-width:0.26458332px;stroke-linecap:butt;stroke-linejoin:miter;stroke-opacity:1"
         d="m 543.90774,924.81842 18.14285,-44.2232 79.75299,18.89882 -15.875,38.93153 z"
         id="path4188-3-7"
         inkscape:connector-curvature="0" />
    </clipPath>
    <clipPath
       clipPathUnits="userSpaceOnUse"
       id="clipPath4302-4-9">
      <path
         style="fill:none;fill-rule:evenodd;stroke:#000000;stroke-width:0.26458332px;stroke-linecap:butt;stroke-linejoin:miter;stroke-opacity:1"
         d="m 543.90774,924.81842 31.25629,-77.2432 84.99171,25.65789 -34.22716,65.19246 z"
         id="path4304-0-5"
         inkscape:connector-curvature="0" />
    </clipPath>
    <linearGradient
       inkscape:collect="always"
       xlink:href="#linearGradient1462"
       id="linearGradient3458"
       gradientUnits="userSpaceOnUse"
       x1="62.846668"
       y1="-1793.2899"
       x2="168.899"
       y2="-1798.9596" />
    <linearGradient
       inkscape:collect="always"
       xlink:href="#linearGradient1462"
       id="linearGradient3460"
       gradientUnits="userSpaceOnUse"
       x1="62.846668"
       y1="-1793.2899"
       x2="168.899"
       y2="-1798.9596" />
    <linearGradient
       inkscape:collect="always"
       xlink:href="#linearGradient1462"
       id="linearGradient3462"
       gradientUnits="userSpaceOnUse"
       x1="62.846668"
       y1="-1793.2899"
       x2="168.899"
       y2="-1798.9596" />
    <linearGradient
       inkscape:collect="always"
       xlink:href="#linearGradient1462"
       id="linearGradient3464"
       gradientUnits="userSpaceOnUse"
       x1="62.846668"
       y1="-1793.2899"
       x2="168.899"
       y2="-1798.9596" />
    <linearGradient
       inkscape:collect="always"
       xlink:href="#linearGradient1462"
       id="linearGradient3466"
       gradientUnits="userSpaceOnUse"
       x1="62.846668"
       y1="-1793.2899"
       x2="168.899"
       y2="-1798.9596" />
    <linearGradient
       inkscape:collect="always"
       xlink:href="#linearGradient1462"
       id="linearGradient3468"
       gradientUnits="userSpaceOnUse"
       x1="62.846668"
       y1="-1793.2899"
       x2="168.899"
       y2="-1798.9596" />
  </defs>
  <sodipodi:namedview
     id="base"
     pagecolor="#ffffff"
     bordercolor="#666666"
     borderopacity="1.0"
     inkscape:pageopacity="0.0"
     inkscape:pageshadow="2"
     inkscape:zoom="0.12374369"
     inkscape:cx="-92.857143"
     inkscape:cy="560"
     inkscape:document-units="mm"
     inkscape:current-layer="g3508"
     showgrid="false"
     inkscape:window-width="1680"
     inkscape:window-height="953"
     inkscape:window-x="0"
     inkscape:window-y="1"
     inkscape:window-maximized="1" />
  <metadata
     id="metadata2424">
    <rdf:RDF>
      <cc:Work
         rdf:about="">
        <dc:format>image/svg+xml</dc:format>
        <dc:type
           rdf:resource="http://purl.org/dc/dcmitype/StillImage" />
        <dc:title></dc:title>
      </cc:Work>
    </rdf:RDF>
  </metadata>
  <g
     inkscape:label="Layer 1"
     inkscape:groupmode="layer"
     id="layer1"
     transform="translate(0,-173)">
    <g
       transform="translate(1499.2264,-505.73216)"
       id="g2420"
       inkscape:export-filename="/Users/vitorpeixoto/Documents/MIEI/PEI/logo/logo.png"
       inkscape:export-xdpi="80.994896"
       inkscape:export-ydpi="80.994896">
      <g
         id="g3508"
         transform="matrix(3.3424874,0,0,3.3424874,2643.4697,-2023.1835)">
        <g
           inkscape:export-ydpi="338.66568"
           inkscape:export-xdpi="338.66568"
           inkscape:export-filename="/Users/vitorpeixoto/Documents/MIEI/PEI/logo/full_logo.png"
           id="g651"
           style="fill:url(#linearGradient1464);fill-opacity:1"
           transform="matrix(1.8730472,0,0,1.8730472,-1357.1132,4196.44)">
          <path
             d="m 111.24198,-1789.4907 h -4.41877 v -2.5993 l 0.81691,-1.0768 q -0.63125,1.5595 -1.5967,2.3764 -0.96544,0.817 -1.89376,1.1883 -1.07684,0.4084 -2.22795,0.4827 -2.302221,-0.037 -4.084585,-1.0397 -0.779784,-0.4456 -1.522435,-1.114 -0.705519,-0.7055 -1.29964,-1.7452 -0.556989,-1.0397 -0.928314,-2.4879 -0.334193,-1.4482 -0.334193,-3.3791 0,-1.9309 0.371325,-3.379 0.371326,-1.4482 0.965447,-2.4879 0.631254,-1.0769 1.411038,-1.7824 0.816916,-0.7055 1.633833,-1.1511 1.930894,-1.0397 4.418774,-1.114 2.33935,0 3.97319,0.7056 1.63383,0.6683 2.67354,1.968 1.07685,1.2625 1.55957,3.1191 0.48272,1.8195 0.48272,4.1589 z m -8.68902,-14.9273 q -1.3739,0 -2.22795,0.557 -0.816919,0.557 -1.26251,1.411 -0.445591,0.8169 -0.594121,1.7824 -0.14853,0.9654 -0.14853,1.7823 0,0.817 0.14853,1.7824 0.14853,0.9654 0.594121,1.8195 0.445591,0.8169 1.26251,1.3739 0.85405,0.557 2.22795,0.557 1.37391,0 2.19082,-0.557 0.85405,-0.557 1.29964,-1.3739 0.48273,-0.8541 0.63126,-1.8195 0.14853,-0.9654 0.14853,-1.7824 0,-1.0025 -0.14853,-1.968 -0.1114,-1.0026 -0.55699,-1.7824 -0.40846,-0.8169 -1.26251,-1.2996 -0.85405,-0.4827 -2.30222,-0.4827 z"
             style="font-style:normal;font-variant:normal;font-weight:500;font-stretch:normal;font-size:medium;line-height:125%;font-family:Run;-inkscape-font-specification:'Run Medium';letter-spacing:0px;word-spacing:0px;fill:url(#linearGradient3458);fill-opacity:1;stroke:none;stroke-width:0.92831433px;stroke-linecap:butt;stroke-linejoin:miter;stroke-opacity:1"
             id="path629"
             inkscape:connector-curvature="0" />
          <path
             d="m 121.86944,-1808.7997 q 0.1114,0 0.77979,0.037 0.70552,0.037 1.63383,0.3342 0.92831,0.2599 1.96803,0.854 1.03971,0.5941 1.93089,1.7081 0.89118,1.114 1.44817,2.8221 0.59412,1.671 0.59412,4.1588 v 9.3946 h -4.53017 v -9.3946 q 0,-0.8169 -0.14853,-1.6709 -0.14853,-0.8541 -0.55699,-1.5596 -0.40846,-0.7055 -1.15111,-1.1511 -0.74265,-0.4827 -1.96803,-0.4827 -1.22537,0 -1.96802,0.4827 -0.74266,0.4456 -1.15111,1.1511 -0.40846,0.7055 -0.55699,1.5596 -0.14853,0.854 -0.14853,1.6709 v 9.3946 h -4.53018 v -9.3946 q 0,-2.4878 0.55699,-4.1588 0.59412,-1.7081 1.48531,-2.8221 0.89118,-1.114 1.93089,-1.7081 1.03971,-0.5941 1.96803,-0.854 0.92831,-0.2971 1.5967,-0.3342 0.66838,-0.037 0.81691,-0.037 z"
             style="font-style:normal;font-variant:normal;font-weight:500;font-stretch:normal;font-size:medium;line-height:125%;font-family:Run;-inkscape-font-specification:'Run Medium';letter-spacing:0px;word-spacing:0px;fill:url(#linearGradient3460);fill-opacity:1;stroke:none;stroke-width:0.92831433px;stroke-linecap:butt;stroke-linejoin:miter;stroke-opacity:1"
             id="path631"
             inkscape:connector-curvature="0" />
          <path
             d="m 140.79835,-1808.7997 q 0.1114,0 0.77978,0.037 0.70552,0.037 1.63384,0.3342 0.92831,0.2599 1.96802,0.854 1.03972,0.5941 1.9309,1.7081 0.89118,1.114 1.44817,2.8221 0.59412,1.671 0.59412,4.1588 v 9.3946 H 144.623 v -9.3946 q 0,-0.8169 -0.14853,-1.6709 -0.14853,-0.8541 -0.55698,-1.5596 -0.40846,-0.7055 -1.15111,-1.1511 -0.74266,-0.4827 -1.96803,-0.4827 -1.22537,0 -1.96803,0.4827 -0.74265,0.4456 -1.15111,1.1511 -0.40845,0.7055 -0.55698,1.5596 -0.14853,0.854 -0.14853,1.6709 v 9.3946 h -4.53018 v -9.3946 q 0,-2.4878 0.55699,-4.1588 0.59412,-1.7081 1.4853,-2.8221 0.89118,-1.114 1.9309,-1.7081 1.03971,-0.5941 1.96802,-0.854 0.92832,-0.2971 1.5967,-0.3342 0.66839,-0.037 0.81692,-0.037 z"
             style="font-style:normal;font-variant:normal;font-weight:500;font-stretch:normal;font-size:medium;line-height:125%;font-family:Run;-inkscape-font-specification:'Run Medium';letter-spacing:0px;word-spacing:0px;fill:url(#linearGradient3462);fill-opacity:1;stroke:none;stroke-width:0.92831433px;stroke-linecap:butt;stroke-linejoin:miter;stroke-opacity:1"
             id="path633"
             inkscape:connector-curvature="0" />
          <path
             d="m 168.899,-1789.4907 h -4.41877 v -2.5993 l 0.81692,-1.0768 q -0.63126,1.5595 -1.59671,2.3764 -0.96544,0.817 -1.89376,1.1883 -1.07684,0.4084 -2.22795,0.4827 -2.30222,-0.037 -4.08458,-1.0397 -0.77979,-0.4456 -1.52244,-1.114 -0.70552,-0.7055 -1.29964,-1.7452 -0.55699,-1.0397 -0.92831,-2.4879 -0.3342,-1.4482 -0.3342,-3.3791 0,-1.9309 0.37133,-3.379 0.37132,-1.4482 0.96545,-2.4879 0.63125,-1.0769 1.41103,-1.7824 0.81692,-0.7055 1.63384,-1.1511 1.93089,-1.0397 4.41877,-1.114 2.33935,0 3.97319,0.7056 1.63383,0.6683 2.67354,1.968 1.07685,1.2625 1.55957,3.1191 0.48272,1.8195 0.48272,4.1589 z m -8.68902,-14.9273 q -1.3739,0 -2.22795,0.557 -0.81692,0.557 -1.26251,1.411 -0.44559,0.8169 -0.59412,1.7824 -0.14853,0.9654 -0.14853,1.7823 0,0.817 0.14853,1.7824 0.14853,0.9654 0.59412,1.8195 0.44559,0.8169 1.26251,1.3739 0.85405,0.557 2.22795,0.557 1.37391,0 2.19082,-0.557 0.85405,-0.557 1.29964,-1.3739 0.48273,-0.8541 0.63126,-1.8195 0.14853,-0.9654 0.14853,-1.7824 0,-1.0025 -0.14853,-1.968 -0.1114,-1.0026 -0.55699,-1.7824 -0.40846,-0.8169 -1.26251,-1.2996 -0.85405,-0.4827 -2.30222,-0.4827 z"
             style="font-style:normal;font-variant:normal;font-weight:500;font-stretch:normal;font-size:medium;line-height:125%;font-family:Run;-inkscape-font-specification:'Run Medium';letter-spacing:0px;word-spacing:0px;fill:url(#linearGradient3464);fill-opacity:1;stroke:none;stroke-width:0.92831433px;stroke-linecap:butt;stroke-linejoin:miter;stroke-opacity:1"
             id="path635"
             inkscape:connector-curvature="0" />
          <g
             id="text2818-7-3"
             style="font-style:normal;font-weight:normal;font-size:37.13257217px;line-height:125%;font-family:sans-serif;letter-spacing:0px;word-spacing:0px;fill:url(#linearGradient3468);fill-opacity:1;stroke:none;stroke-width:0.92831433px;stroke-linecap:butt;stroke-linejoin:miter;stroke-opacity:1"
             transform="scale(1,-1)"
             aria-label="m">
            <path
               id="path638"
               style="font-style:normal;font-variant:normal;font-weight:500;font-stretch:normal;font-family:Run;-inkscape-font-specification:'Run Medium';fill:url(#linearGradient3466);fill-opacity:1;stroke-width:0.92831433px"
               d="m 75.026146,1799.2195 q 0,-0.8169 -0.111398,-1.671 -0.07426,-0.854 -0.445591,-1.5596 -0.371325,-0.7055 -1.151109,-1.1511 -0.742652,-0.4827 -2.116557,-0.4827 -1.373905,0 -2.153689,0.4827 -0.742652,0.4456 -1.113977,1.1511 -0.371326,0.7056 -0.482724,1.5596 -0.07426,0.8541 -0.07426,1.671 v 9.3945 h -4.530174 v -9.3945 q 0,-1.9309 0.334193,-3.3791 0.371326,-1.4482 0.965447,-2.4879 0.594121,-1.0768 1.336773,-1.7823 0.742651,-0.7056 1.522435,-1.1511 1.819496,-1.0398 4.195981,-1.114 2.339352,0.074 4.158848,1.114 0.779784,0.4455 1.522436,1.1511 0.779784,0.7055 1.336772,1.7823 0.594121,1.0397 0.965447,2.4879 0.371326,1.4482 0.371326,3.3791 v 9.3945 h -4.530174 z m 12.179484,0 q 0,-0.8169 -0.111398,-1.671 -0.07427,-0.854 -0.445591,-1.5596 -0.371326,-0.7055 -1.15111,-1.1511 -0.742651,-0.4827 -2.116556,-0.4827 -1.373906,0 -2.15369,0.4827 -0.742651,0.4456 -1.113977,1.1511 -0.371325,0.7056 -0.482723,1.5596 -0.07426,0.8541 -0.07426,1.671 v 9.3945 h -4.530174 v -9.3945 q 0,-1.9309 0.334193,-3.3791 0.371326,-1.4482 0.965447,-2.4879 0.594121,-1.0768 1.336773,-1.7823 0.742651,-0.7056 1.522435,-1.1511 1.819496,-1.0398 4.195981,-1.114 2.339352,0.074 4.158848,1.114 0.779784,0.4455 1.522435,1.1511 0.779784,0.7055 1.336773,1.7823 0.594121,1.0397 0.965447,2.4879 0.371325,1.4482 0.371325,3.3791 v 9.3945 H 87.20563 Z"
               inkscape:connector-curvature="0" />
          </g>
        </g>
      </g>
    </g>
  </g>
</svg>
